<svg width="43" height="32" viewBox="0 0 43 32" fill="none" xmlns="http://www.w3.org/2000/svg">
<g clip-path="url(#clip0_14_199)">
<path d="M0 0H43V32H0V0Z" fill="#012169"/>
<path d="M5.03906 0L21.4328 12.0667L37.7594 0H43V4.13333L26.875 16.0667L43 27.9333V32H37.625L21.5 20.0667L5.44219 32H0V28L16.0578 16.1333L0 4.26667V0H5.03906Z" fill="white"/>
<path d="M28.4875 18.7333L43 29.3333V32L24.7922 18.7333H28.4875ZM16.125 20.0667L16.5281 22.4L3.62813 32H0L16.125 20.0667ZM43 0V0.2L26.2703 12.7333L26.4047 9.8L39.6406 0H43ZM0 0L16.0578 11.7333H12.0266L0 2.8V0Z" fill="#C8102E"/>
<path d="M16.1922 0V32H26.9422V0H16.1922ZM0 10.6667V21.3333H43V10.6667H0Z" fill="white"/>
<path d="M0 12.8667V19.2667H43V12.8667H0ZM18.3422 0V32H24.7922V0H18.3422Z" fill="#C8102E"/>
</g>
<defs>
<clipPath id="clip0_14_199">
<rect width="43" height="32" fill="white"/>
</clipPath>
</defs>
</svg>
